ffmpeg started on 2026-03-22 at 17:14:28
Report written to "D:\Convert\FFMetrics\reports\psnr_report-6.txt"
Log level: 32
Command line:
ffmpeg -hide_banner -nostdin -r 24000/1001 -i "F:\\Convert\\files\\[DC] Make Heroine ga Oosugiru - 07_Telegram_HEVC(233).mkv" -r 24000/1001 -i "F:\\Convert\\files\\[DC] Make Heroine ga Oosugiru - 07_Telegram.mp4" -lavfi "[0:v]settb=AVTB,setpts=PTS-STARTPTS,format=pix_fmts=yuv420p10le,fps=24000/1001,scale=1920:1080:flags=lanczos:param0=3:out_range=limited:out_color_matrix=bt709:out_chroma_loc=left,setsar=1/1,setdar=(1920/1080)*(1/1),colorspace=format=yuv420p10:range=tv:primaries=bt709:trc=bt709:space=bt709:fast=0[main];[1:v]settb=AVTB,setpts=PTS-STARTPTS,format=pix_fmts=yuv420p,fps=24000/1001,scale=1920:1080:flags=lanczos:param0=3:out_range=limited:out_color_matrix=bt709:out_chroma_loc=left,setsar=1.000,setdar=1.778,colorspace=format=yuv420p:range=tv:primaries=bt709:trc=bt709:space=bt709:fast=0[ref];[main][ref]psnr=eof_action=endall:stats_file='D\\:/Convert/FFMetrics/logs/psnr_logfile-6.txt'" -f null -
Input #0, matroska,webm, from 'F:\Convert\files\[DC] Make Heroine ga Oosugiru - 07_Telegram_HEVC(233).mkv':
  Metadata:
    COMPATIBLE_BRANDS: isomiso2avc1mp41
    MAJOR_BRAND     : isom
    MINOR_VERSION   : 512
    ENCODER         : Lavf61.7.100
  Duration: 00:24:06.79, start: -0.021000, bitrate: 981 kb/s
  Stream #0:0: Video: hevc (Main 10), yuv420p10le(tv, bt709, progressive), 1920x1080 [SAR 1:1 DAR 16:9], 23.98 fps, 23.98 tbr, 1k tbn (default)
      Metadata:
        HANDLER_NAME    : VideoHandler
        VENDOR_ID       : [0][0][0][0]
        ENCODER         : Lavc61.19.100 libx265
        BPS             : 784021
        DURATION        : 00:24:06.569708333
        NUMBER_OF_FRAMES: 34683
        NUMBER_OF_BYTES : 141767694
        _STATISTICS_WRITING_APP: mkvpropedit v94.0 ('Initiate') 64-bit
        _STATISTICS_WRITING_DATE_UTC: 2026-03-21 13:44:04
        _STATISTICS_TAGS: BPS DURATION NUMBER_OF_FRAMES NUMBER_OF_BYTES
  Stream #0:1: Audio: aac (LC), 48000 Hz, stereo, fltp (default)
      Metadata:
        HANDLER_NAME    : SoundHandler
        VENDOR_ID       : [0][0][0][0]
        ENCODER         : Lavc61.19.100 aac
        BPS             : 193194
        DURATION        : 00:24:06.784000000
        NUMBER_OF_FRAMES: 67819
        NUMBER_OF_BYTES : 34938755
        _STATISTICS_WRITING_APP: mkvpropedit v94.0 ('Initiate') 64-bit
        _STATISTICS_WRITING_DATE_UTC: 2026-03-21 13:44:04
        _STATISTICS_TAGS: BPS DURATION NUMBER_OF_FRAMES NUMBER_OF_BYTES
Input #1, mov,mp4,m4a,3gp,3g2,mj2, from 'F:\Convert\files\[DC] Make Heroine ga Oosugiru - 07_Telegram.mp4':
  Metadata:
    major_brand     : isom
    minor_version   : 512
    compatible_brands: isomiso2avc1mp41
    encoder         : Lavf60.16.100
  Duration: 00:24:06.74, start: 0.000000, bitrate: 3764 kb/s
  Stream #1:0[0x1](und): Video: h264 (High) (avc1 / 0x31637661), yuv420p(tv, bt709, progressive), 1920x1080 [SAR 1:1 DAR 16:9], 3616 kb/s, 23.98 fps, 23.98 tbr, 24k tbn (default)
      Metadata:
        handler_name    : VideoHandler
        vendor_id       : [0][0][0][0]
        encoder         : Lavc60.31.102 h264_qsv
  Stream #1:1[0x2](und): Audio: aac (HE-AACv2) (mp4a / 0x6134706D), 48000 Hz, stereo, fltp, 144 kb/s (default)
      Metadata:
        handler_name    : SoundHandler
        vendor_id       : [0][0][0][0]
Stream mapping:
  Stream #0:0 (hevc) -> settb:default
  Stream #1:0 (h264) -> settb:default
  psnr:default -> Stream #0:0 (wrapped_avframe)
  Stream #0:1 -> #0:1 (aac (native) -> pcm_s16le (native))
Output #0, null, to 'pipe:':
  Metadata:
    COMPATIBLE_BRANDS: isomiso2avc1mp41
    MAJOR_BRAND     : isom
    MINOR_VERSION   : 512
    encoder         : Lavf61.7.100
  Stream #0:0: Video: wrapped_avframe, yuv420p10le(tv, bt709, progressive), 1920x1080 [SAR 1:1 DAR 16:9], q=2-31, 200 kb/s, 23.98 fps, 23.98 tbn
      Metadata:
        encoder         : Lavc61.19.100 wrapped_avframe
  Stream #0:1: Audio: pcm_s16le, 48000 Hz, stereo, s16, 1536 kb/s (default)
      Metadata:
        HANDLER_NAME    : SoundHandler
        VENDOR_ID       : [0][0][0][0]
        _STATISTICS_TAGS: BPS DURATION NUMBER_OF_FRAMES NUMBER_OF_BYTES
        BPS             : 193194
        DURATION        : 00:24:06.784000000
        NUMBER_OF_FRAMES: 67819
        NUMBER_OF_BYTES : 34938755
        _STATISTICS_WRITING_APP: mkvpropedit v94.0 ('Initiate') 64-bit
        _STATISTICS_WRITING_DATE_UTC: 2026-03-21 13:44:04
        encoder         : Lavc61.19.100 pcm_s16le
frame=  132 fps=0.0 q=-0.0 size=N/A time=00:00:05.50 bitrate=N/A speed=10.8x    frame=  339 fps=327 q=-0.0 size=N/A time=00:00:14.13 bitrate=N/A speed=13.6x    frame=  542 fps=350 q=-0.0 size=N/A time=00:00:22.60 bitrate=N/A speed=14.6x    frame=  747 fps=363 q=-0.0 size=N/A time=00:00:31.15 bitrate=N/A speed=15.1x    frame=  928 fps=361 q=-0.0 size=N/A time=00:00:38.70 bitrate=N/A speed=  15x    frame= 1086 fps=350 q=-0.0 size=N/A time=00:00:45.29 bitrate=N/A speed=14.6x    frame= 1247 fps=345 q=-0.0 size=N/A time=00:00:52.01 bitrate=N/A speed=14.4x    frame= 1414 fps=343 q=-0.0 size=N/A time=00:00:58.97 bitrate=N/A speed=14.3x    frame= 1554 fps=335 q=-0.0 size=N/A time=00:01:04.81 bitrate=N/A speed=  14x    frame= 1721 fps=333 q=-0.0 size=N/A time=00:01:11.78 bitrate=N/A speed=13.9x    frame= 1893 fps=334 q=-0.0 size=N/A time=00:01:18.95 bitrate=N/A speed=13.9x    frame= 2051 fps=332 q=-0.0 size=N/A time=00:01:25.54 bitrate=N/A speed=13.8x    frame= 2168 fps=324 q=-0.0 size=N/A time=00:01:30.42 bitrate=N/A speed=13.5x    frame= 2342 fps=324 q=-0.0 size=N/A time=00:01:37.68 bitrate=N/A speed=13.5x    frame= 2475 fps=320 q=-0.0 size=N/A time=00:01:43.22 bitrate=N/A speed=13.3x    frame= 2620 fps=318 q=-0.0 size=N/A time=00:01:49.27 bitrate=N/A speed=13.3x    frame= 2807 fps=320 q=-0.0 size=N/A time=00:01:57.07 bitrate=N/A speed=13.3x    frame= 2994 fps=322 q=-0.0 size=N/A time=00:02:04.87 bitrate=N/A speed=13.4x    frame= 3194 fps=326 q=-0.0 size=N/A time=00:02:13.21 bitrate=N/A speed=13.6x    frame= 3402 fps=330 q=-0.0 size=N/A time=00:02:21.89 bitrate=N/A speed=13.7x    frame= 3613 fps=333 q=-0.0 size=N/A time=00:02:30.69 bitrate=N/A speed=13.9x    frame= 3818 fps=336 q=-0.0 size=N/A time=00:02:39.24 bitrate=N/A speed=  14x    frame= 4029 fps=339 q=-0.0 size=N/A time=00:02:48.04 bitrate=N/A speed=14.1x    frame= 4216 fps=340 q=-0.0 size=N/A time=00:02:55.84 bitrate=N/A speed=14.2x    frame= 4408 fps=342 q=-0.0 size=N/A time=00:03:03.85 bitrate=N/A speed=14.2x    frame= 4614 fps=344 q=-0.0 size=N/A time=00:03:12.44 bitrate=N/A speed=14.3x    frame= 4827 fps=346 q=-0.0 size=N/A time=00:03:21.32 bitrate=N/A speed=14.4x    frame= 5028 fps=348 q=-0.0 size=N/A time=00:03:29.70 bitrate=N/A speed=14.5x    frame= 5228 fps=349 q=-0.0 size=N/A time=00:03:38.05 bitrate=N/A speed=14.6x    frame= 5433 fps=351 q=-0.0 size=N/A time=00:03:46.60 bitrate=N/A speed=14.6x    frame= 5648 fps=353 q=-0.0 size=N/A time=00:03:55.56 bitrate=N/A speed=14.7x    frame= 5845 fps=354 q=-0.0 size=N/A time=00:04:03.78 bitrate=N/A speed=14.8x    frame= 6054 fps=355 q=-0.0 size=N/A time=00:04:12.50 bitrate=N/A speed=14.8x    frame= 6260 fps=357 q=-0.0 size=N/A time=00:04:21.09 bitrate=N/A speed=14.9x    frame= 6469 fps=358 q=-0.0 size=N/A time=00:04:29.81 bitrate=N/A speed=14.9x    frame= 6675 fps=359 q=-0.0 size=N/A time=00:04:38.40 bitrate=N/A speed=  15x    frame= 6886 fps=361 q=-0.0 size=N/A time=00:04:47.20 bitrate=N/A speed=  15x    frame= 7086 fps=361 q=-0.0 size=N/A time=00:04:55.54 bitrate=N/A speed=15.1x    frame= 7293 fps=362 q=-0.0 size=N/A time=00:05:04.17 bitrate=N/A speed=15.1x    frame= 7489 fps=363 q=-0.0 size=N/A time=00:05:12.35 bitrate=N/A speed=15.1x    frame= 7671 fps=363 q=-0.0 size=N/A time=00:05:19.94 bitrate=N/A speed=15.1x    frame= 7877 fps=363 q=-0.0 size=N/A time=00:05:28.53 bitrate=N/A speed=15.2x    frame= 8078 fps=364 q=-0.0 size=N/A time=00:05:36.91 bitrate=N/A speed=15.2x    frame= 8277 fps=365 q=-0.0 size=N/A time=00:05:45.21 bitrate=N/A speed=15.2x    frame= 8481 fps=365 q=-0.0 size=N/A time=00:05:53.72 bitrate=N/A speed=15.2x    frame= 8673 fps=365 q=-0.0 size=N/A time=00:06:01.73 bitrate=N/A speed=15.2x    frame= 8878 fps=366 q=-0.0 size=N/A time=00:06:10.28 bitrate=N/A speed=15.3x    frame= 9077 fps=367 q=-0.0 size=N/A time=00:06:18.58 bitrate=N/A speed=15.3x    frame= 9284 fps=367 q=-0.0 size=N/A time=00:06:27.22 bitrate=N/A speed=15.3x    frame= 9494 fps=368 q=-0.0 size=N/A time=00:06:35.97 bitrate=N/A speed=15.3x    frame= 9701 fps=369 q=-0.0 size=N/A time=00:06:44.61 bitrate=N/A speed=15.4x    frame= 9901 fps=369 q=-0.0 size=N/A time=00:06:52.95 bitrate=N/A speed=15.4x    frame=10114 fps=370 q=-0.0 size=N/A time=00:07:01.83 bitrate=N/A speed=15.4x    frame=10312 fps=370 q=-0.0 size=N/A time=00:07:10.09 bitrate=N/A speed=15.4x    frame=10517 fps=371 q=-0.0 size=N/A time=00:07:18.64 bitrate=N/A speed=15.5x    frame=10714 fps=371 q=-0.0 size=N/A time=00:07:26.86 bitrate=N/A speed=15.5x    frame=10922 fps=371 q=-0.0 size=N/A time=00:07:35.53 bitrate=N/A speed=15.5x    frame=11125 fps=372 q=-0.0 size=N/A time=00:07:44.00 bitrate=N/A speed=15.5x    frame=11314 fps=372 q=-0.0 size=N/A time=00:07:51.88 bitrate=N/A speed=15.5x    frame=11522 fps=372 q=-0.0 size=N/A time=00:08:00.56 bitrate=N/A speed=15.5x    frame=11735 fps=373 q=-0.0 size=N/A time=00:08:09.44 bitrate=N/A speed=15.6x    frame=11939 fps=373 q=-0.0 size=N/A time=00:08:17.95 bitrate=N/A speed=15.6x    frame=12132 fps=373 q=-0.0 size=N/A time=00:08:26.00 bitrate=N/A speed=15.6x    frame=12344 fps=374 q=-0.0 size=N/A time=00:08:34.84 bitrate=N/A speed=15.6x    frame=12560 fps=375 q=-0.0 size=N/A time=00:08:43.85 bitrate=N/A speed=15.6x    frame=12760 fps=375 q=-0.0 size=N/A time=00:08:52.19 bitrate=N/A speed=15.6x    frame=12975 fps=375 q=-0.0 size=N/A time=00:09:01.16 bitrate=N/A speed=15.7x    frame=13171 fps=376 q=-0.0 size=N/A time=00:09:09.34 bitrate=N/A speed=15.7x    frame=13377 fps=376 q=-0.0 size=N/A time=00:09:17.93 bitrate=N/A speed=15.7x    frame=13583 fps=376 q=-0.0 size=N/A time=00:09:26.52 bitrate=N/A speed=15.7x    frame=13786 fps=376 q=-0.0 size=N/A time=00:09:34.99 bitrate=N/A speed=15.7x    frame=13990 fps=377 q=-0.0 size=N/A time=00:09:43.49 bitrate=N/A speed=15.7x    frame=14173 fps=376 q=-0.0 size=N/A time=00:09:51.13 bitrate=N/A speed=15.7x    frame=14371 fps=376 q=-0.0 size=N/A time=00:09:59.39 bitrate=N/A speed=15.7x    frame=14570 fps=377 q=-0.0 size=N/A time=00:10:07.69 bitrate=N/A speed=15.7x    frame=14769 fps=377 q=-0.0 size=N/A time=00:10:15.99 bitrate=N/A speed=15.7x    frame=14976 fps=377 q=-0.0 size=N/A time=00:10:24.62 bitrate=N/A speed=15.7x    frame=15144 fps=376 q=-0.0 size=N/A time=00:10:31.63 bitrate=N/A speed=15.7x    frame=15337 fps=376 q=-0.0 size=N/A time=00:10:39.68 bitrate=N/A speed=15.7x    frame=15539 fps=377 q=-0.0 size=N/A time=00:10:48.10 bitrate=N/A speed=15.7x    frame=15752 fps=377 q=-0.0 size=N/A time=00:10:56.98 bitrate=N/A speed=15.7x    frame=15957 fps=377 q=-0.0 size=N/A time=00:11:05.53 bitrate=N/A speed=15.7x    frame=16155 fps=377 q=-0.0 size=N/A time=00:11:13.79 bitrate=N/A speed=15.7x    frame=16363 fps=378 q=-0.0 size=N/A time=00:11:22.47 bitrate=N/A speed=15.8x    frame=16567 fps=378 q=-0.0 size=N/A time=00:11:30.98 bitrate=N/A speed=15.8x    frame=16774 fps=378 q=-0.0 size=N/A time=00:11:39.61 bitrate=N/A speed=15.8x    frame=16983 fps=378 q=-0.0 size=N/A time=00:11:48.33 bitrate=N/A speed=15.8x    frame=17195 fps=379 q=-0.0 size=N/A time=00:11:57.17 bitrate=N/A speed=15.8x    frame=17407 fps=379 q=-0.0 size=N/A time=00:12:06.01 bitrate=N/A speed=15.8x    frame=17600 fps=379 q=-0.0 size=N/A time=00:12:14.06 bitrate=N/A speed=15.8x    frame=17798 fps=379 q=-0.0 size=N/A time=00:12:22.32 bitrate=N/A speed=15.8x    frame=18006 fps=379 q=-0.0 size=N/A time=00:12:31.00 bitrate=N/A speed=15.8x    frame=18205 fps=379 q=-0.0 size=N/A time=00:12:39.30 bitrate=N/A speed=15.8x    frame=18392 fps=379 q=-0.0 size=N/A time=00:12:47.09 bitrate=N/A speed=15.8x    frame=18606 fps=380 q=-0.0 size=N/A time=00:12:56.02 bitrate=N/A speed=15.8x    frame=18814 fps=380 q=-0.0 size=N/A time=00:13:04.70 bitrate=N/A speed=15.8x    frame=19018 fps=380 q=-0.0 size=N/A time=00:13:13.20 bitrate=N/A speed=15.9x    frame=19231 fps=380 q=-0.0 size=N/A time=00:13:22.09 bitrate=N/A speed=15.9x    frame=19434 fps=380 q=-0.0 size=N/A time=00:13:30.55 bitrate=N/A speed=15.9x    frame=19650 fps=381 q=-0.0 size=N/A time=00:13:39.56 bitrate=N/A speed=15.9x    frame=19854 fps=381 q=-0.0 size=N/A time=00:13:48.07 bitrate=N/A speed=15.9x    frame=20056 fps=381 q=-0.0 size=N/A time=00:13:56.50 bitrate=N/A speed=15.9x    frame=20255 fps=381 q=-0.0 size=N/A time=00:14:04.80 bitrate=N/A speed=15.9x    frame=20445 fps=381 q=-0.0 size=N/A time=00:14:12.72 bitrate=N/A speed=15.9x    frame=20630 fps=381 q=-0.0 size=N/A time=00:14:20.44 bitrate=N/A speed=15.9x    frame=20827 fps=381 q=-0.0 size=N/A time=00:14:28.65 bitrate=N/A speed=15.9x    frame=21039 fps=381 q=-0.0 size=N/A time=00:14:37.50 bitrate=N/A speed=15.9x    frame=21245 fps=381 q=-0.0 size=N/A time=00:14:46.09 bitrate=N/A speed=15.9x    frame=21451 fps=381 q=-0.0 size=N/A time=00:14:54.68 bitrate=N/A speed=15.9x    frame=21654 fps=382 q=-0.0 size=N/A time=00:15:03.15 bitrate=N/A speed=15.9x    frame=21864 fps=382 q=-0.0 size=N/A time=00:15:11.91 bitrate=N/A speed=15.9x    frame=22069 fps=382 q=-0.0 size=N/A time=00:15:20.46 bitrate=N/A speed=15.9x    frame=22275 fps=382 q=-0.0 size=N/A time=00:15:29.05 bitrate=N/A speed=15.9x    frame=22490 fps=382 q=-0.0 size=N/A time=00:15:38.02 bitrate=N/A speed=  16x    frame=22705 fps=383 q=-0.0 size=N/A time=00:15:46.98 bitrate=N/A speed=  16x    frame=22899 fps=383 q=-0.0 size=N/A time=00:15:55.07 bitrate=N/A speed=  16x    frame=23112 fps=383 q=-0.0 size=N/A time=00:16:03.96 bitrate=N/A speed=  16x    frame=23307 fps=383 q=-0.0 size=N/A time=00:16:12.09 bitrate=N/A speed=  16x    frame=23516 fps=383 q=-0.0 size=N/A time=00:16:20.81 bitrate=N/A speed=  16x    frame=23725 fps=383 q=-0.0 size=N/A time=00:16:29.53 bitrate=N/A speed=  16x    frame=23928 fps=383 q=-0.0 size=N/A time=00:16:37.99 bitrate=N/A speed=  16x    frame=24131 fps=383 q=-0.0 size=N/A time=00:16:46.46 bitrate=N/A speed=  16x    frame=24326 fps=383 q=-0.0 size=N/A time=00:16:54.59 bitrate=N/A speed=  16x    frame=24512 fps=383 q=-0.0 size=N/A time=00:17:02.35 bitrate=N/A speed=  16x    frame=24726 fps=383 q=-0.0 size=N/A time=00:17:11.28 bitrate=N/A speed=  16x    frame=24914 fps=383 q=-0.0 size=N/A time=00:17:19.12 bitrate=N/A speed=  16x    frame=25119 fps=383 q=-0.0 size=N/A time=00:17:27.67 bitrate=N/A speed=  16x    frame=25333 fps=384 q=-0.0 size=N/A time=00:17:36.59 bitrate=N/A speed=  16x    frame=25536 fps=384 q=-0.0 size=N/A time=00:17:45.06 bitrate=N/A speed=  16x    frame=25741 fps=384 q=-0.0 size=N/A time=00:17:53.61 bitrate=N/A speed=  16x    frame=25938 fps=384 q=-0.0 size=N/A time=00:18:01.83 bitrate=N/A speed=  16x    frame=26150 fps=384 q=-0.0 size=N/A time=00:18:10.67 bitrate=N/A speed=  16x    frame=26351 fps=384 q=-0.0 size=N/A time=00:18:19.05 bitrate=N/A speed=  16x    frame=26553 fps=384 q=-0.0 size=N/A time=00:18:27.48 bitrate=N/A speed=  16x    frame=26755 fps=384 q=-0.0 size=N/A time=00:18:35.90 bitrate=N/A speed=  16x    frame=26942 fps=384 q=-0.0 size=N/A time=00:18:43.70 bitrate=N/A speed=  16x    frame=27111 fps=384 q=-0.0 size=N/A time=00:18:50.75 bitrate=N/A speed=  16x    frame=27295 fps=383 q=-0.0 size=N/A time=00:18:58.42 bitrate=N/A speed=  16x    frame=27481 fps=383 q=-0.0 size=N/A time=00:19:06.18 bitrate=N/A speed=  16x    frame=27670 fps=383 q=-0.0 size=N/A time=00:19:14.06 bitrate=N/A speed=  16x    frame=27858 fps=383 q=-0.0 size=N/A time=00:19:21.91 bitrate=N/A speed=  16x    frame=28046 fps=383 q=-0.0 size=N/A time=00:19:29.75 bitrate=N/A speed=  16x    frame=28244 fps=383 q=-0.0 size=N/A time=00:19:38.01 bitrate=N/A speed=  16x    frame=28443 fps=383 q=-0.0 size=N/A time=00:19:46.31 bitrate=N/A speed=  16x    frame=28636 fps=383 q=-0.0 size=N/A time=00:19:54.35 bitrate=N/A speed=  16x    frame=28821 fps=383 q=-0.0 size=N/A time=00:20:02.07 bitrate=N/A speed=  16x    frame=28995 fps=382 q=-0.0 size=N/A time=00:20:09.33 bitrate=N/A speed=15.9x    frame=29171 fps=382 q=-0.0 size=N/A time=00:20:16.67 bitrate=N/A speed=15.9x    frame=29362 fps=382 q=-0.0 size=N/A time=00:20:24.64 bitrate=N/A speed=15.9x    frame=29535 fps=382 q=-0.0 size=N/A time=00:20:31.85 bitrate=N/A speed=15.9x    frame=29712 fps=381 q=-0.0 size=N/A time=00:20:39.23 bitrate=N/A speed=15.9x    frame=29888 fps=381 q=-0.0 size=N/A time=00:20:46.57 bitrate=N/A speed=15.9x    frame=30045 fps=381 q=-0.0 size=N/A time=00:20:53.12 bitrate=N/A speed=15.9x    frame=30237 fps=381 q=-0.0 size=N/A time=00:21:01.13 bitrate=N/A speed=15.9x    frame=30439 fps=381 q=-0.0 size=N/A time=00:21:09.55 bitrate=N/A speed=15.9x    frame=30637 fps=381 q=-0.0 size=N/A time=00:21:17.81 bitrate=N/A speed=15.9x    frame=30834 fps=381 q=-0.0 size=N/A time=00:21:26.03 bitrate=N/A speed=15.9x    frame=31040 fps=381 q=-0.0 size=N/A time=00:21:34.62 bitrate=N/A speed=15.9x    frame=31235 fps=381 q=-0.0 size=N/A time=00:21:42.75 bitrate=N/A speed=15.9x    frame=31429 fps=381 q=-0.0 size=N/A time=00:21:50.85 bitrate=N/A speed=15.9x    frame=31622 fps=381 q=-0.0 size=N/A time=00:21:58.90 bitrate=N/A speed=15.9x    frame=31812 fps=381 q=-0.0 size=N/A time=00:22:06.82 bitrate=N/A speed=15.9x    frame=31998 fps=381 q=-0.0 size=N/A time=00:22:14.58 bitrate=N/A speed=15.9x    frame=32190 fps=381 q=-0.0 size=N/A time=00:22:22.59 bitrate=N/A speed=15.9x    frame=32391 fps=381 q=-0.0 size=N/A time=00:22:30.97 bitrate=N/A speed=15.9x    frame=32587 fps=381 q=-0.0 size=N/A time=00:22:39.14 bitrate=N/A speed=15.9x    frame=32746 fps=380 q=-0.0 size=N/A time=00:22:45.78 bitrate=N/A speed=15.9x    frame=32905 fps=380 q=-0.0 size=N/A time=00:22:52.41 bitrate=N/A speed=15.8x    frame=33088 fps=380 q=-0.0 size=N/A time=00:23:00.04 bitrate=N/A speed=15.8x    frame=33272 fps=379 q=-0.0 size=N/A time=00:23:07.71 bitrate=N/A speed=15.8x    frame=33456 fps=379 q=-0.0 size=N/A time=00:23:15.39 bitrate=N/A speed=15.8x    frame=33603 fps=379 q=-0.0 size=N/A time=00:23:21.52 bitrate=N/A speed=15.8x    frame=33750 fps=378 q=-0.0 size=N/A time=00:23:27.65 bitrate=N/A speed=15.8x    frame=33879 fps=377 q=-0.0 size=N/A time=00:23:33.03 bitrate=N/A speed=15.7x    frame=34045 fps=377 q=-0.0 size=N/A time=00:23:39.96 bitrate=N/A speed=15.7x    frame=34206 fps=377 q=-0.0 size=N/A time=00:23:46.67 bitrate=N/A speed=15.7x    frame=34340 fps=376 q=-0.0 size=N/A time=00:23:52.26 bitrate=N/A speed=15.7x    frame=34481 fps=375 q=-0.0 size=N/A time=00:23:58.14 bitrate=N/A speed=15.7x    frame=34669 fps=375 q=-0.0 size=N/A time=00:24:05.98 bitrate=N/A speed=15.7x    [Parsed_psnr_16 @ 000002b829f7a340] PSNR y:48.974096 u:50.336896 v:50.388452 average:49.389482 min:38.016919 max:inf
[out#0/null @ 000002b81cade740] video:14903KiB audio:271276KiB subtitle:0KiB other streams:0KiB global headers:0KiB muxing overhead: unknown
frame=34683 fps=375 q=-0.0 Lsize=N/A time=00:24:06.57 bitrate=N/A speed=15.7x    
